<svg viewBox="-11.257661586606497 -4.494919801370401 255.6152033256639 77.55151642728549" xmlns="http://www.w3.org/2000/svg" width="2500" height="769"><g fill="none" fill-rule="evenodd"><path d="M243.211 38.672h-19.106v8.904h9.032v14.61h10.074z" fill="#fcc010" fill-rule="nonzero"/><path d="M92.6 57.075h.115v1.793H92.6zm11.247 0h1.93v1.793h-1.93zm2.25 0h1.929v1.793h-1.93zm0-2.121h1.929v1.787h-1.93zm-98.656 2.28c-.08-.062-.16-.136-.24-.204.103.068.183.142.24.204zm-.693-.618l-.229-.221.23.221zm94.85-1.662h1.929v1.787h-1.929zm2.249 0h1.93v1.787h-1.93zm-97.78 1.004l-.223-.227zm100.03-3.113h1.929v1.786h-1.93zm-45.842-22.22c-.67.24-1.315.54-1.93.896v.567h1.93zM97.1 59.19h1.928v1.85h-1.929zm6.747 0h1.93v1.85h-1.93zm-2.249 0h1.929v1.85h-1.929zm-8.998 0h1.93v1.85H92.6zm2.25-6.345h1.929v1.786h-1.93zm4.499 0h1.928v1.786H99.35zM4.797 54.569c-.075-.085-.138-.17-.206-.255.068.085.131.17.206.255zm99.05-1.724h1.93v1.786h-1.93zm2.25 6.345h1.929v1.85h-1.93zM92.6 52.845h.115v1.786H92.6zm-76.67 8.682l-.292-.073.291.073zm-.945-.249l-.292-.097zm-1.82-.635l-.292-.12zm.898.34l-.286-.108zm-1.785-.715l-.258-.153zm41.566-23.581h1.912v1.73h-1.912zM85.428 5.206a1.997 1.997 0 0 0-1.487.537 1.96 1.96 0 0 0-.62 1.442.17.17 0 0 0 .05.133.173.173 0 0 0 .134.049h3.812a.173.173 0 0 0 .133-.05.17.17 0 0 0 .05-.132 1.914 1.914 0 0 0-.592-1.445 1.95 1.95 0 0 0-1.48-.534zm11.62 40.64h2.18v2.218h-2.18z"/><path d="M65.881 52.998a20.82 20.82 0 0 1 9.965-9.897c.074-.524.11-1.053.11-1.582-.004-6.407-5.245-11.6-11.712-11.603-.349 0-.692 0-1.036.057h1.26c-.052.107-.115.215-.172.323h-1.471v1.792h.435l-.218.329h-.217v.312c-.103.153-.212.3-.32.448V32.4h-1.93v1.786h1.145c-.092.114-.189.221-.286.33h-.836v.9l-.32.33v-1.23h-1.952v1.78h1.328c-.143.13-.292.255-.441.38h-.887v.754l-.32.25v-.993h-1.912v1.736h.824c-.172.107-.344.22-.515.323h-.31v.181l-.32.188v-.37h-1.929v1.322l-.338.148v-1.47h-.63a10.943 10.943 0 0 0-.291 1.793h.074l-.103.04c0 .306-.046.612-.046.924a11.55 11.55 0 0 0 3.43 8.205 11.766 11.766 0 0 0 8.281 3.399c.548 0 1.095-.035 1.637-.108z"/><path d="M56.076 34.515h1.93v1.792h-1.93zM11.448 59.854l-.275-.147zm87.901-2.779h1.928v1.793H99.35zM8.97 58.414l-.253-.182.252.182zm85.88-1.339h1.929v1.793h-1.93zm-86.648.772l-.246-.193zM97.1 54.954h1.928v1.787h-1.929zM9.76 58.913l-.258-.17.257.17zm89.468-28.56h2.221v2.177h-2.22zm-4.401 0h2.18v2.177h-2.18zM10.578 59.4l-.27-.158.27.159zM92.6 54.954h1.93v1.787H92.6zm4.448-22.418h2.18v2.217h-2.18zM2.65 51.467l-.172-.318zm52.51-17.281h.573v-.658c-.183.216-.384.431-.572.658zm2.845-1.786h-1.007a10.9 10.9 0 0 0-.904.8v.986h1.928zm50.341 26.79h1.93v1.85h-1.93zM3.13 52.278l-.182-.301.183.3zm-.926-1.645c-.058-.108-.11-.221-.166-.33.057.109.108.222.166.33zm1.448 2.433l-.19-.284zm-2.227-4.163l-.143-.363zm-.332-.89c-.04-.13-.086-.255-.126-.386.04.13.086.255.126.386zm.699 1.769l-.15-.351zm93.035-6.159h2.18v2.218h-2.18zM57.444 32.07h.573v-.373c-.206.119-.39.243-.573.374zM18.837 62.026h-.2zm-.984-.119l-.258-.045zm-.973-.17l-.275-.057zm43.695-31.248v1.582h1.93v-1.792h-1.186c-.251.068-.498.13-.744.21zM4.207 53.831l-.2-.272zM21.401 27.2h.796v.113h-.796zm77.827 16.423h2.221v2.218h-2.22zM.807 47.1c-.04-.13-.074-.267-.109-.397.035.13.069.266.11.397zm54.102-12.585a11.852 11.852 0 0 0-1.065 1.702v.079h1.912v-1.78h-.847zm53.437 22.56h1.93v1.793h-1.93zM.572 46.17c-.034-.137-.063-.273-.097-.414.023.141.052.277.097.414zm107.774 8.784h1.93v1.787h-1.93zM58.326 32.4h1.929v1.792h-1.93zm50.02 20.445h1.93v1.786h-1.93zM.2 44.27c0-.148-.04-.295-.057-.443.017.148.034.295.057.443zm4.23-3.114l-.47-.096c.155 0 .31.074.47.108zM.355 45.228c0-.142-.052-.283-.075-.43.023.147.052.288.075.43zM100.74 11.377a1.986 1.986 0 0 0 2.1-1.815 18.9 18.9 0 0 0 0-2.541 2.117 2.117 0 0 0-2.103-1.816c-1.06 0-1.959.775-2.104 1.816a18.819 18.819 0 0 0 0 2.54 1.986 1.986 0 0 0 2.106 1.816zM52.963 38.423h.572v-1.56a11.659 11.659 0 0 0-.572 1.56z"/><g fill-rule="nonzero"><path d="M7.441 1.832h1.248a.29.29 0 0 0 .292-.29V.29A.302.302 0 0 0 8.71 0H7.44a.302.302 0 0 0-.292.29v1.253a.282.282 0 0 0 .084.206c.055.054.13.084.208.083zM4.682 12.828h6.766a.368.368 0 0 0 .26-.108.361.361 0 0 0 .106-.26v-.811a.356.356 0 0 0-.106-.259.362.362 0 0 0-.26-.104h-2.29a.173.173 0 0 1-.133-.05.17.17 0 0 1-.05-.132V4.117c0-.1-.042-.196-.115-.265a.368.368 0 0 0-.274-.098h-3.72a.365.365 0 0 0-.367.363v.817c0 .096.039.189.107.257a.368.368 0 0 0 .26.106H7.08a.173.173 0 0 1 .134.05.17.17 0 0 1 .05.131v5.626a.17.17 0 0 1-.05.132.173.173 0 0 1-.134.05H4.682a.365.365 0 0 0-.366.363v.828a.37.37 0 0 0 .366.351zm9.518 0h.917a.365.365 0 0 0 .366-.363V6.93c0-1.049.881-1.701 2.015-1.701a1.894 1.894 0 0 1 1.399.48c.38.343.603.825.616 1.335v5.433c0 .2.164.363.366.363h.916c.1.004.197-.032.27-.1a.361.361 0 0 0 .113-.263V7.032a3.387 3.387 0 0 0-1.007-2.465 3.451 3.451 0 0 0-2.49-.994c-1.282 0-1.431.601-1.958.601a.699.699 0 0 1-.458-.29.356.356 0 0 0-.257-.13H14.2a.365.365 0 0 0-.367.363v8.36a.365.365 0 0 0 .367.351zm12.914.182c1.9 0 3.606-.964 3.606-2.904 0-2.268-2.072-2.614-3.606-2.887-.899-.164-1.614-.362-1.614-1.015 0-.527.475-1.089 1.614-1.089s1.608.568 1.608 1.18c0 .2.164.363.367.363h.915a.365.365 0 0 0 .367-.363c0-1.701-1.614-2.722-3.257-2.722S23.8 4.57 23.8 6.204c0 1.98 1.808 2.343 3.314 2.649 1.059.215 1.957.454 1.957 1.253 0 1.089-.973 1.344-1.957 1.344-.842 0-1.98-.255-1.98-1.582 0-.2-.165-.363-.367-.363h-.916a.365.365 0 0 0-.366.363c-.017 2.234 1.797 3.142 3.629 3.142zm5.946-7.532h1.855a.173.173 0 0 1 .134.05.17.17 0 0 1 .05.132v4.446c0 1.604 1.312 2.904 2.93 2.904 1.619 0 2.93-1.3 2.93-2.904 0-.2-.163-.363-.366-.363h-.915a.365.365 0 0 0-.367.363c0 .702-.574 1.27-1.282 1.27a1.276 1.276 0 0 1-1.282-1.27V5.671a.17.17 0 0 1 .05-.132.173.173 0 0 1 .133-.05h2.908a.368.368 0 0 0 .267-.113.361.361 0 0 0 .1-.272v-.896c0-.2-.165-.363-.367-.363h-2.93a.173.173 0 0 1-.134-.05.17.17 0 0 1-.05-.131V.828c0-.2-.164-.363-.366-.363h-.916a.365.365 0 0 0-.366.363v2.836a.17.17 0 0 1-.05.132.173.173 0 0 1-.134.05h-1.831a.368.368 0 0 0-.26.105.361.361 0 0 0-.106.257v.896a.361.361 0 0 0 .103.264.37.37 0 0 0 .263.11zm10.441 7.35h6.771a.37.37 0 0 0 .367-.368v-.811c0-.2-.164-.363-.367-.363H47.95a.173.173 0 0 1-.134-.05.17.17 0 0 1-.05-.132V4.117c0-.2-.164-.363-.366-.363h-3.715a.365.365 0 0 0-.366.363v.817c0 .096.039.189.107.257a.368.368 0 0 0 .26.106H45.9a.173.173 0 0 1 .134.05.17.17 0 0 1 .05.131v5.626a.17.17 0 0 1-.05.132.173.173 0 0 1-.134.05h-2.398a.365.365 0 0 0-.366.363v.828a.37.37 0 0 0 .366.351zm2.782-10.996h1.225a.293.293 0 0 0 .21-.083.288.288 0 0 0 .087-.206V.289A.302.302 0 0 0 47.508 0h-1.225a.302.302 0 0 0-.292.29v1.253a.282.282 0 0 0 .084.206c.055.054.13.084.208.083zm6.187 3.646h1.832a.173.173 0 0 1 .133.05.17.17 0 0 1 .05.132v4.446c0 1.604 1.312 2.904 2.93 2.904 1.62 0 2.931-1.3 2.931-2.904 0-.2-.164-.363-.366-.363h-.916a.365.365 0 0 0-.366.363c0 .702-.574 1.27-1.282 1.27a1.276 1.276 0 0 1-1.282-1.27V5.671a.17.17 0 0 1 .05-.132.173.173 0 0 1 .133-.05h2.93a.365.365 0 0 0 .367-.362v-.919c0-.2-.164-.363-.367-.363h-2.93a.173.173 0 0 1-.134-.05.17.17 0 0 1-.05-.131V.828c0-.2-.163-.363-.366-.363h-.916a.365.365 0 0 0-.366.363v2.836a.17.17 0 0 1-.05.132.173.173 0 0 1-.133.05H52.47a.365.365 0 0 0-.366.362v.896a.361.361 0 0 0 .103.264c.07.07.164.11.263.11zm13.274 7.532c1.356 0 1.43-.601 1.963-.601.185.033.35.137.458.289.06.079.153.126.252.13h.807a.365.365 0 0 0 .366-.363V4.117c0-.2-.164-.363-.366-.363h-.916a.365.365 0 0 0-.366.363v5.524c0 1.05-.876 1.701-2.015 1.701-1.26 0-2.009-.765-2.009-1.814v-5.41a.365.365 0 0 0-.366-.364h-.916a.365.365 0 0 0-.366.363v5.445a3.29 3.29 0 0 0 .972 2.48 3.354 3.354 0 0 0 2.502.968zm6.136-7.532h1.831a.173.173 0 0 1 .134.05.17.17 0 0 1 .05.132v4.446c0 1.604 1.312 2.904 2.93 2.904 1.619 0 2.93-1.3 2.93-2.904 0-.2-.163-.363-.365-.363h-.916a.365.365 0 0 0-.367.363c0 .702-.574 1.27-1.282 1.27a1.276 1.276 0 0 1-1.282-1.27V5.671a.17.17 0 0 1 .05-.132.173.173 0 0 1 .133-.05h2.93a.361.361 0 0 0 .366-.363l.001-.918c0-.2-.164-.363-.366-.363h-2.93a.173.173 0 0 1-.134-.05.17.17 0 0 1-.05-.131V.828c0-.2-.164-.363-.366-.363h-.916a.365.365 0 0 0-.366.363v2.836a.17.17 0 0 1-.05.132.173.173 0 0 1-.134.05H71.88a.365.365 0 0 0-.366.362v.896a.361.361 0 0 0 .103.264.37.37 0 0 0 .263.11zm13.531-1.905c-1.994-.064-3.668 1.473-3.755 3.448a20.904 20.904 0 0 0 0 2.54c.087 1.975 1.761 3.513 3.755 3.449 1.906 0 3.331-1.134 3.555-2.722a.293.293 0 0 0-.064-.262.299.299 0 0 0-.251-.101h-.933a.406.406 0 0 0-.418.306 1.868 1.868 0 0 1-1.889 1.134c-1.265 0-2.124-.726-2.124-2.376a.17.17 0 0 1 .05-.132.173.173 0 0 1 .134-.05h5.248a.365.365 0 0 0 .367-.363V7.202c-.012-2.268-1.46-3.63-3.675-3.63zm1.906 3.8h-3.812a.173.173 0 0 1-.133-.05.17.17 0 0 1-.05-.132 1.96 1.96 0 0 1 .62-1.443 1.99 1.99 0 0 1 1.486-.536 1.95 1.95 0 0 1 1.48.534c.394.377.61.902.592 1.445a.17.17 0 0 1-.05.132.173.173 0 0 1-.133.05zm13.423 5.637c1.992.064 3.665-1.475 3.749-3.448a18.9 18.9 0 0 0 0-2.541c-.134-1.956-1.774-3.474-3.752-3.474-1.979 0-3.619 1.518-3.752 3.474a18.819 18.819 0 0 0 0 2.54c.083 1.977 1.76 3.516 3.754 3.449zm-2.108-5.99a2.117 2.117 0 0 1 2.104-1.816c1.06 0 1.958.775 2.103 1.816.057.846.057 1.695 0 2.54a2.117 2.117 0 0 1-2.103 1.816 2.117 2.117 0 0 1-2.104-1.815 18.819 18.819 0 0 1-.017-2.541zm8.146-1.542h2.29a.173.173 0 0 1 .133.05.17.17 0 0 1 .05.132v6.817c0 .2.164.363.366.363h.916a.365.365 0 0 0 .366-.363V5.67a.17.17 0 0 1 .05-.132.173.173 0 0 1 .133-.05h2.965a.361.361 0 0 0 .366-.363v-.918c0-.2-.163-.363-.366-.363h-2.965a.173.173 0 0 1-.133-.05.17.17 0 0 1-.05-.131v-.261a1.833 1.833 0 0 1 1.717-1.815h1.1a.365.365 0 0 0 .366-.363V.363c0-.2-.164-.363-.367-.363h-1.099a3.37 3.37 0 0 0-2.423.989 3.307 3.307 0 0 0-.965 2.414v.272a.17.17 0 0 1-.05.132.173.173 0 0 1-.133.05h-2.29a.365.365 0 0 0-.366.362v.885a.361.361 0 0 0 .11.273.368.368 0 0 0 .28.101z" fill="#fff"/><path d="M.2 44.27c0 .176.052.351.08.527.03.176.052.29.075.431.023.142.074.352.109.528.034.175.063.277.097.414.034.136.086.357.137.533.052.176.069.266.11.397.04.13.102.351.16.527.057.176.085.255.125.386l.19.527.142.363c.069.176.143.352.218.528l.149.351c.08.17.166.346.246.522s.108.221.166.329c.057.108.177.346.274.516l.172.318c.097.175.2.34.298.51l.183.3c.109.17.217.34.332.505l.189.284.355.493.2.272c.126.16.252.324.384.483.131.158.131.17.206.255.074.085.269.312.406.465s.137.164.212.244l.429.453.223.227c.15.153.298.295.452.437l.23.221.474.414c.08.068.16.142.24.204l.493.403.246.193.515.374.252.181c.172.125.355.239.533.358l.257.17.573.329.269.159.572.306.275.147.572.278.28.136.573.256.292.119.612.232.286.108.63.198.292.097.653.176.291.073c.224.057.447.102.676.153l.275.057.715.125.258.045.784.097h.2c.326 0 .658.056.99.073h1.013v-2.053a20.141 20.141 0 0 0-1.825-7.208c-5.079-.83-9.007-4.861-9.668-9.919a20.683 20.683 0 0 0-1.145-.533l-.395-.159a19.74 19.74 0 0 0-.801-.306l-.475-.164c-.27-.091-.538-.17-.813-.25-.143-.04-.292-.09-.435-.125h-.046v.947H4.43v-1.134c-.16-.034-.315-.08-.47-.108a20.45 20.45 0 0 0-3.931-.38v1.85c0 .17 0 .34.028.504v.057c0 .255.052.505.08.76.023.119.04.266.063.414z" fill="#846baa"/><path d="M.063 43.067c0 .165.029.33.046.494-.003.055-.003.11 0 .164a12.81 12.81 0 0 1-.069-.658z" fill="#846baa"/><path d="M20.91 53.015c-.637 0-1.273-.05-1.901-.153a20.023 20.023 0 0 1 1.826 7.208v2.053h-1.013c-.332 0-.664-.046-.99-.074h-.2l-.785-.096-.258-.046-.715-.124-.275-.057c-.229-.051-.452-.097-.675-.153l-.292-.074-.653-.176-.292-.096-.63-.199-.285-.107-.607-.278-.292-.12-.572-.255-.281-.153-.572-.278-.275-.147-.572-.306-.27-.16-.572-.328-.257-.17c-.178-.12-.361-.233-.533-.358l-.252-.181-.515-.374-.246-.193-.492-.403c-.08-.062-.16-.136-.24-.204l-.476-.414-.229-.221a10.857 10.857 0 0 1-.452-.437l-.223-.227-.43-.453a4.326 4.326 0 0 1-.211-.244c-.069-.085-.275-.306-.406-.465-.132-.16-.138-.17-.206-.256-.07-.085-.258-.323-.384-.482l-.2-.255-.355-.493-.19-.284c-.114-.164-.222-.334-.331-.504l-.183-.301c-.098-.17-.2-.335-.298-.51l-.172-.318a8.925 8.925 0 0 1-.274-.516 8.657 8.657 0 0 0-.166-.33c-.058-.107-.166-.35-.246-.52l-.15-.352a23.489 23.489 0 0 1-.217-.528l-.143-.363-.189-.527c-.04-.13-.086-.255-.126-.386-.04-.13-.108-.352-.16-.527-.051-.176-.074-.267-.109-.397-.034-.13-.097-.352-.137-.533-.04-.182-.063-.273-.097-.414-.035-.142-.075-.352-.11-.528-.033-.176-.05-.283-.074-.425-.022-.142-.057-.352-.08-.528-.023-.175-.04-.294-.057-.442 0-.255-.063-.505-.08-.76 0 .221.04.437.069.658.028.221.057.522.097.783v.034c1.323 8.671 8.014 15.578 16.705 17.243 8.69 1.665 17.498-2.273 21.988-9.831l-7.962-4.645c-2.093 3.532-5.917 5.7-10.05 5.7z" fill="#3680c2"/><path d="M9.347 42.897c.642 5.074 4.571 9.126 9.662 9.965a21.014 21.014 0 0 0-9.662-9.965z" fill="#fbdee2"/><path d="M92.634 23.711h2.193v2.2h-2.193zm4.414 0h2.18v2.2h-2.18zm-2.221 2.201h2.18v2.2h-2.18z" fill="#1fb5e8"/><path d="M110.596 21.55h-6.92v2.178h-2.221v2.2h2.22v2.201h-2.22v2.206h-2.227v-2.223h-2.18v2.206h-2.221v-2.206h-2.193v2.206h2.193v.035h2.18v-.035h2.221v.035h2.227v-.035h2.22v.035h6.92c6.093.136 10.96 5.069 10.96 11.107s-4.867 10.97-10.96 11.107v8.819c7.267.121 14.033-3.65 17.702-9.865a19.77 19.77 0 0 0 0-20.123c-3.669-6.215-10.435-9.986-17.701-9.864v.017zm-15.769-.016h2.18v2.177h-2.18z" fill="#1fb5e8"/><path d="M99.228 25.912h2.221v2.2h-2.22zm0-4.378h2.221v2.177h-2.22z" fill="#1fb5e8"/><path d="M138.677 51.387h10l-10-9.902z" fill="#fcc010"/><path d="M148.677 51.387v-9.902h-10zm-.007-19.867l-9.993-9.896c.003 5.467 4.477 9.897 9.994 9.897z" fill="#79be43"/><path d="M148.677 31.52v-9.896h-10z" fill="#fcc010"/><path d="M148.67 31.555h.007-.006zm-9.993 0v9.896l9.994-9.896z" fill="#3680c2"/><path d="M138.677 41.451h9.994v-9.896z" fill="#fcc010"/><path d="M148.67 61.318v-9.902l-9.993 9.902z" fill="#3680c2"/><path d="M148.67 51.416h-9.993v9.902l9.994-9.902h.006z" fill="#79be43"/><path d="M195.755 61.25a.975.975 0 0 1-1.076.014.955.955 0 0 1 .33-1.742.971.971 0 0 1 .998.4.83.83 0 0 1 .137.318V21.55h-9.988v24.047a.894.894 0 0 1 .189.198.947.947 0 0 1-.189 1.265v4.191a.894.894 0 0 1 .189.199.947.947 0 0 1-.189 1.264v4.191a.894.894 0 0 1 .189.199.941.941 0 0 1-.189 1.264v3.035h1.185a.956.956 0 0 1-.819-.907.964.964 0 0 1 1.843-.414.948.948 0 0 1-.75 1.32h3.727a.964.964 0 0 1-.93-.837.958.958 0 0 1 .69-1.04.97.97 0 0 1 1.145.512.953.953 0 0 1-.333 1.201.99.99 0 0 1-.526.165h4.785v-.749a.942.942 0 0 1-.418.595zm-7.733-5.672a.967.967 0 0 1-1.334-.257.947.947 0 0 1 .257-1.321.967.967 0 0 1 1.335.251.953.953 0 0 1-.258 1.327zm0-5.671a.967.967 0 0 1-1.334-.257.947.947 0 0 1 .257-1.322.967.967 0 0 1 1.335.252.951.951 0 0 1-.258 1.355zm1.935 8.507a.969.969 0 0 1-1.07.007.949.949 0 0 1 .338-1.73.966.966 0 0 1 .99.401.947.947 0 0 1-.258 1.322zm0-5.671a.967.967 0 0 1-1.334-.257.947.947 0 0 1 .257-1.322.967.967 0 0 1 1.334.252.946.946 0 0 1-.257 1.327zm1.934 2.835a.967.967 0 0 1-1.333-.257.947.947 0 0 1 .256-1.321.967.967 0 0 1 1.335.251.953.953 0 0 1-.258 1.327zm1.935 2.836a.969.969 0 0 1-1.34-.25.953.953 0 0 1 .253-1.327.971.971 0 0 1 .96-.072.952.952 0 0 1 .127 1.649z" fill="#cd6fac"/><path d="M49.34 36.687h1.928v1.73H49.34zm8.986-14.875h1.929v1.786h-1.93zm2.249 8.467v.21c.246-.08.493-.142.744-.21zm2.25-4.231h1.929v1.792h-1.93zm-2.25 2.172h1.93v1.73h-1.93zm2.25-6.408h1.929v1.786h-1.93zm-2.25 0h1.93v1.786h-1.93zM47.09 36.687h1.929v1.73H47.09zm2.25-6.408h1.928v1.792H49.34zm2.255 0h1.911v1.792h-1.911zm-4.505 4.236h1.929v1.792H47.09zm2.25-2.115h1.928v1.792H49.34zm0 2.115h1.928v1.792H49.34zm4.504-10.582h1.912v1.792h-1.912zM44.84 34.515h1.93v1.792h-1.93zm2.25 4.231h1.929v1.786H47.09zm-2.25-2.059h1.93v1.73h-1.93zm0 2.059h1.93v1.786h-1.93z" fill="#fcc010"/><path d="M64.244 20.853c-11.48-.002-20.802 9.194-20.85 20.569s9.196 20.647 20.677 20.74c11.48.092 20.875-9.03 21.014-20.405v-.646c-.219-11.25-9.485-20.257-20.84-20.258zm20.84 20.904c-.177 11.152-9.258 20.15-20.513 20.326h-.653v-.323c0-3.029.671-6.02 1.969-8.762a12.12 12.12 0 0 1-1.637.108 11.766 11.766 0 0 1-8.285-3.397 11.55 11.55 0 0 1-3.432-8.207c0-.312 0-.618.046-.924l-.836.283H51.6v.046l-.326.09v-.136H49.34v.607l-.32.068v-.669h-1.93v.93h-.32v-.93h-1.93v1.01h-.32v-1.01h-1.105v-.329h1.094v-1.792h-.916c0-.108 0-.216.04-.323h.887v-1.736h-.572c0-.124.057-.255.091-.38h.452v-1.474c.103-.295.206-.567.32-.874v.227h1.93V32.4h-1.208l.172-.33h1.064v-1.79c.11-.17.224-.335.338-.505v.182h1.93V28.22h-.75l.337-.38h.395v-.43l.32-.341v.771h1.93v-1.792h-.842l.383-.329h.458v-.374l.327-.25v.624h1.911v-1.786h-.211l.572-.33h1.9v-.958l.32-.147v1.106h1.93v-1.792h-.057c.383-.12.767-.227 1.144-.324h1.145v-.255l.32-.057v.312h1.93v-.567h.32v.567h1.929v-.618h.326v.607h1.551v.323H65.08v1.792h1.357l-.052.33H65.08v1.786h.944l-.085.329h-.859v1.792h.298c-.046.13-.103.255-.15.38h-.148v.38c-.103.25-.212.493-.326.737v-1.134h-1.93v1.735h.384c.344-.034.687-.057 1.036-.057a11.772 11.772 0 0 1 8.29 3.41 11.555 11.555 0 0 1 3.312 9.804 20.743 20.743 0 0 1 5.21-1.65 20.44 20.44 0 0 1 3.702-.329h.327v.652z" fill="#fcc010"/><path d="M49.34 38.746h1.928v1.786H49.34zm2.255-10.526h1.911v1.73h-1.911zm0-2.172h1.911v1.792h-1.911zm4.481-2.115h1.93v1.792h-1.93zM49.34 28.22h1.928v1.73H49.34zm-2.25 4.18h1.929v1.792H47.09zm0-2.121h1.929v1.792H47.09zm15.735-6.346h1.929v1.792h-1.93zM51.595 32.4h1.911v1.792h-1.911zm0 2.115h1.911v1.792h-1.911zm2.249 0v1.702c.306-.596.662-1.165 1.065-1.702zm2.232-8.467h1.93v1.792h-1.93zm-2.232 0h1.912v1.792h-1.912zm0 4.231h1.912v1.792h-1.912zm-.338 6.408h-1.911v1.736h1.368a11.66 11.66 0 0 1 .572-1.537zm.338-8.467h1.912v1.73h-1.912zm2.232 0h1.93v1.73h-1.93zm.018 4.18v.8c.292-.284.6-.55.921-.8zm4.161-2.121h-1.93v1.225a11.83 11.83 0 0 1 1.93-.88zm-1.929-2.059h1.929v1.73h-1.93zm-6.731 12.318h.99a10.87 10.87 0 0 1 .292-1.792h-1.282zm8.98-14.49h1.93v1.792h-1.93zm-2.249-2.115h1.929v1.792h-1.93zm-2.57 8.467h-1.912v1.786h1.317c.188-.227.389-.442.572-.658zm2.57-6.352h1.929v1.792h-1.93zm2.249-2.115h1.93v1.792h-1.93zm-2.57 6.346h-1.911v1.792h1.368c.183-.13.366-.255.572-.374z" fill="#fcc010"/><path d="M65.881 52.998c5.177-.73 9.242-4.766 9.965-9.897a20.82 20.82 0 0 0-9.965 9.897z" fill="#dc3b21"/><path d="M84.758 41.105a20.44 20.44 0 0 0-3.703.33 20.743 20.743 0 0 0-5.209 1.65c-.716 5.137-4.782 9.182-9.965 9.913a20.468 20.468 0 0 0-1.969 8.762v.323h.653C75.82 61.907 84.9 52.91 85.079 41.757v-.646l-.32-.006z" fill="#f58820"/><path d="M169.534 22.963a.947.947 0 0 0-.254 1.322.967.967 0 0 0 1.334.254.947.947 0 0 0 .26-1.32.973.973 0 0 0-1.34-.256zm1.929 2.824a.95.95 0 0 0-.252 1.327c.3.436.9.547 1.34.25a.952.952 0 0 0-.127-1.65.971.971 0 0 0-.96.073zm1.935 2.819a.955.955 0 0 0 .357 1.736.971.971 0 0 0 .991-.415.962.962 0 0 0-.625-1.47.969.969 0 0 0-.723.149zm1.934 2.824a.94.94 0 0 0-.252 1.321.966.966 0 0 0 1.74-.358.95.95 0 0 0-.418-.975.969.969 0 0 0-1.07.012zm1.935 2.819a.947.947 0 0 0-.254 1.322.967.967 0 0 0 1.334.254.947.947 0 0 0 .26-1.321.969.969 0 0 0-1.34-.255zm1.935 2.818a.947.947 0 0 0-.254 1.323.967.967 0 0 0 1.334.254.947.947 0 0 0 .26-1.322.973.973 0 0 0-1.34-.255zm1.934 2.825a.947.947 0 0 0-.254 1.322.967.967 0 0 0 1.335.254.947.947 0 0 0 .259-1.321.973.973 0 0 0-1.34-.255zm1.935 2.818a.947.947 0 0 0-.254 1.323.967.967 0 0 0 1.334.254.947.947 0 0 0 .26-1.322.973.973 0 0 0-1.34-.255zm3.274 3.08a.894.894 0 0 0-.189-.199.963.963 0 0 0-1.145-.057.95.95 0 0 0 .123 1.647.97.97 0 0 0 .96-.07.331.331 0 0 0 .068-.057.947.947 0 0 0 .183-1.264zm.595 2.563a.947.947 0 0 0-.254 1.322.967.967 0 0 0 1.335.255.947.947 0 0 0 .259-1.322.973.973 0 0 0-1.34-.255zm1.946 2.824a.947.947 0 0 0-.249 1.324c.3.434.898.545 1.336.249a.947.947 0 0 0 .253-1.323.973.973 0 0 0-1.34-.25zm1.924 2.819a.947.947 0 0 0-.254 1.322.967.967 0 0 0 1.334.255.947.947 0 0 0 .259-1.322.973.973 0 0 0-1.34-.255zm1.929 2.824a.953.953 0 0 0-.252 1.327c.3.434.898.544 1.336.247a.947.947 0 0 0 .25-1.323.967.967 0 0 0-1.334-.25zm3.411 3.392a.83.83 0 0 0-.137-.318.967.967 0 0 0-1.33-.226.947.947 0 0 0-.25 1.313.967.967 0 0 0 1.322.268.941.941 0 0 0 .39-.567.866.866 0 0 0 .005-.47zm-26.616-31.595a.947.947 0 0 0-.254 1.322.967.967 0 0 0 1.334.255.947.947 0 0 0 .26-1.322.973.973 0 0 0-1.34-.255zm1.929 2.824a.95.95 0 0 0-.252 1.327c.3.436.9.548 1.34.25a.952.952 0 0 0-.127-1.65.971.971 0 0 0-.96.073zm1.935 2.819a.955.955 0 0 0 .357 1.736.971.971 0 0 0 .991-.415.962.962 0 0 0-.625-1.47.969.969 0 0 0-.723.149zm1.934 2.824a.946.946 0 0 0-.252 1.327c.3.436.9.547 1.34.25a.95.95 0 0 0 .252-1.327.969.969 0 0 0-1.34-.25zm1.935 2.819a.947.947 0 0 0-.254 1.322.967.967 0 0 0 1.334.254.947.947 0 0 0 .26-1.32.969.969 0 0 0-1.34-.255zm1.935 2.818a.947.947 0 0 0-.254 1.323.967.967 0 0 0 1.334.254.947.947 0 0 0 .26-1.321.973.973 0 0 0-1.34-.256zm1.934 2.825a.947.947 0 0 0-.254 1.322.967.967 0 0 0 1.335.254.947.947 0 0 0 .259-1.321.973.973 0 0 0-1.34-.255zm1.935 2.818a.947.947 0 0 0-.254 1.323.967.967 0 0 0 1.334.254.947.947 0 0 0 .26-1.321.973.973 0 0 0-1.34-.256zm3.274 3.08a.894.894 0 0 0-.189-.199.963.963 0 0 0-1.145-.056.953.953 0 0 0 .12 1.65.97.97 0 0 0 .962-.068l.069-.062a.947.947 0 0 0 .183-1.265zm.595 2.563a.947.947 0 0 0-.254 1.323.967.967 0 0 0 1.335.254.947.947 0 0 0 .259-1.322.973.973 0 0 0-1.34-.255zm1.946 2.825a.947.947 0 0 0-.254 1.322.967.967 0 0 0 1.335.254.947.947 0 0 0 .259-1.321.973.973 0 0 0-1.34-.255zm3.263 3.073a.967.967 0 0 0-1.164-.34.951.951 0 0 0 .357 1.832.99.99 0 0 0 .944-.77.951.951 0 0 0-.137-.722zm-22.615-25.634a.947.947 0 0 0-.254 1.323.967.967 0 0 0 1.334.254.947.947 0 0 0 .26-1.321.973.973 0 0 0-1.34-.256zm1.929 2.825a.953.953 0 0 0-.252 1.327c.3.433.898.544 1.336.247a.947.947 0 0 0 .251-1.324.967.967 0 0 0-1.335-.25zm1.935 2.818a.955.955 0 0 0 .357 1.737.971.971 0 0 0 .991-.415.962.962 0 0 0-.625-1.47.969.969 0 0 0-.723.148zm1.934 2.825a.94.94 0 0 0-.252 1.321.966.966 0 0 0 1.74-.359.95.95 0 0 0-.418-.974.969.969 0 0 0-1.07.012zm1.935 2.818a.947.947 0 0 0-.254 1.322.967.967 0 0 0 1.334.255.947.947 0 0 0 .26-1.322.969.969 0 0 0-1.34-.255zm1.935 2.819a.947.947 0 0 0-.254 1.322.967.967 0 0 0 1.334.254.947.947 0 0 0 .26-1.321.973.973 0 0 0-1.34-.255zm1.934 2.824a.947.947 0 0 0-.254 1.322.967.967 0 0 0 1.335.255.947.947 0 0 0 .259-1.322.973.973 0 0 0-1.34-.255zm1.935 2.819a.947.947 0 0 0-.254 1.322.967.967 0 0 0 1.334.254.947.947 0 0 0 .26-1.321.973.973 0 0 0-1.34-.255zm3.274 3.079a.894.894 0 0 0-.189-.198.963.963 0 0 0-1.145-.057.95.95 0 0 0 .123 1.646.97.97 0 0 0 .96-.07.331.331 0 0 0 .068-.056.941.941 0 0 0 .183-1.265zm1.935 2.819a.967.967 0 0 0-1.123-.357.952.952 0 0 0-.628.99.957.957 0 0 0 1.087.847.953.953 0 0 0 .664-1.48zm-18.746-19.991a.947.947 0 0 0-.254 1.322.967.967 0 0 0 1.334.254.947.947 0 0 0 .26-1.321.973.973 0 0 0-1.34-.255zm1.929 2.824a.95.95 0 0 0-.252 1.327c.3.435.9.547 1.34.25a.952.952 0 0 0-.127-1.65.971.971 0 0 0-.96.073zm1.935 2.818a.955.955 0 0 0 .357 1.737.971.971 0 0 0 .991-.415.962.962 0 0 0-.625-1.47.969.969 0 0 0-.723.148zm1.934 2.825a.94.94 0 0 0-.252 1.321.966.966 0 0 0 1.74-.359.95.95 0 0 0-.418-.974.969.969 0 0 0-1.07.012zm1.935 2.818a.947.947 0 0 0-.254 1.323.967.967 0 0 0 1.334.254.947.947 0 0 0 .26-1.321.969.969 0 0 0-1.34-.255zm1.935 2.825a.947.947 0 0 0-.25 1.323.97.97 0 0 0 1.336.25.947.947 0 0 0 .253-1.324.969.969 0 0 0-1.34-.25zm1.934 2.818a.947.947 0 0 0-.254 1.323.967.967 0 0 0 1.335.254.947.947 0 0 0 .259-1.322.973.973 0 0 0-1.34-.255zm1.935 2.819a.947.947 0 0 0-.254 1.322.967.967 0 0 0 1.334.254.947.947 0 0 0 .26-1.321.973.973 0 0 0-1.34-.255z" fill="#fcc010"/><path d="M243.211 52.77l-.612-.385-.057-.034c-4.893 7.732-14.356 11.324-23.21 8.812-8.854-2.513-14.962-10.525-14.981-19.65-.02-9.125 6.056-17.163 14.899-19.712s18.321 1.005 23.246 8.716l.67-.42c-5.117-8.016-14.968-11.712-24.16-9.065-9.192 2.648-15.508 11.002-15.489 20.486.02 9.485 6.369 17.813 15.571 20.425 9.203 2.611 19.04-1.124 24.123-9.16v-.012z" fill="#fff"/><path d="M240.836 51.166h-.046l-.63-.386c-3.949 6.328-11.48 9.52-18.826 7.982s-12.93-7.477-13.957-14.846c-1.028-7.37 2.72-14.586 9.37-18.041s14.772-2.406 20.305 2.623a17.905 17.905 0 0 1 3.005 3.556l.67-.42c-4.441-6.947-12.988-10.14-20.953-7.827-7.964 2.313-13.42 9.572-13.374 17.795.045 8.223 5.582 15.422 13.571 17.647 7.99 2.226 16.501-1.06 20.865-8.055z" fill="#fff"/><path d="M238.048 49.572l-.675-.42c-3.273 5.164-9.465 7.736-15.475 6.43-6.01-1.307-10.547-6.21-11.338-12.257-.792-6.047 2.332-11.935 7.808-14.717s12.124-1.86 16.618 2.306c.859.8 1.618 1.698 2.261 2.677l.67-.431a15.466 15.466 0 0 0-2.393-2.836c-4.741-4.395-11.757-5.367-17.534-2.43-5.776 2.936-9.071 9.15-8.234 15.529.838 6.379 5.627 11.551 11.97 12.926 6.342 1.375 12.873-1.343 16.322-6.794z" fill="#fff"/><path d="M235.604 48.064l-.572-.357-.103-.063c-2.762 4.344-8.08 6.37-13.067 4.977-4.988-1.393-8.455-5.872-8.52-11.006-.066-5.134 3.287-9.698 8.237-11.215s10.318.374 13.19 4.648l.658-.436a12.16 12.16 0 0 0-1.94-2.269c-3.872-3.526-9.558-4.27-14.221-1.864-4.664 2.407-7.307 7.45-6.61 12.614.696 5.164 4.582 9.343 9.72 10.452 5.138 1.11 10.427-1.09 13.228-5.498zm-79.086-26.519v1.985l3.532-1.985zm7.063 1.985l3.532-1.985h-3.532zm-3.566 13.934l-3.497-1.973 3.532-1.985-3.532-1.985 3.532-1.99-3.532-1.986 3.532-1.985-3.532-1.99v15.896l3.532-1.985z" fill="#fff"/><path d="M160.05 41.451l3.531-1.985-.034-.017-3.497-1.973 3.531-1.985-3.531-1.985v7.945l-3.532-1.985v7.946l3.532-1.985-3.532-1.99zm-3.532 5.961v13.974h3.412l.12-.068-3.532-1.985 3.532-1.991-3.532-1.985 3.532-1.985-3.532-1.985 3.532-1.99zm3.532-25.827v3.975l3.531-1.99zm0 7.945l3.531-1.985-3.531-1.985v7.946l3.531-1.985zm0 27.812v4.044h.12l-.12-.068 3.531-1.985z" fill="#fff"/><path d="M163.581 23.57v11.92l3.532-1.985-3.532-1.985 3.532-1.99-3.532-1.986 3.532-1.985zm3.526 17.881l-.028-.017-3.498-1.968 3.526-1.99-3.526-1.985v7.945l-3.531-1.985v15.891l3.531-1.985-3.531-1.985 3.531-1.985-3.531-1.99 3.531-1.985-3.531-1.985 3.531-1.99v3.975l3.532-1.985-3.532-1.99z" fill="#fff"/><path d="M163.581 47.412v11.921l3.532-1.991-3.532-1.985 3.532-1.985-3.532-1.985 3.532-1.99zm0 13.974h3.406l.12-.068-3.526-1.985z" fill="#fff"/><path d="M94.827 30.318h2.22v-2.206h2.181v2.206h2.227v-2.206h2.22v-2.2h-2.22v2.2h-2.227v-2.2h2.227v-2.2h2.22v-2.207h-2.22v2.2h-2.227v-2.2h-2.22v2.2h-2.181v-2.2H92.6v2.206h2.227v2.2h2.18v2.201h-2.18v-2.2H92.6v2.2h2.227zm2.22-6.607h2.181v2.2h-2.18v-2.2z" fill="#93bb4f"/><path d="M92.6 34.753h2.221v2.218h-2.22zm0 4.435h2.221v2.218h-2.22zm4.407 2.218h2.227v-2.218h2.22v-2.217h-2.226v2.217h-2.18v-2.217h-2.221v2.217h2.18zM92.6 48.064h2.221v2.217h-2.22z" fill="#fbe340"/><path d="M97.007 50.281h2.221v-2.217h2.227v-2.218h2.22v-2.223h-2.22v2.218h-2.227v-2.218h2.227V41.4h-2.227v2.218h-2.18V41.4h-2.221v2.218h2.18v2.217h-2.18v-2.212H92.6v2.223h2.227v2.218h2.18zm.04-4.435h2.181v2.218h-2.18v-2.218zm-2.22 4.435h2.22V52.5h-2.22zm4.401 0h2.221V52.5h-2.22zM92.6 52.845h1.923v1.786H92.6zm4.5 0h1.928v1.786h-1.929zm-2.25 2.109h1.929v1.787h-1.93zm4.499 0h1.928v1.787H99.35zM94.85 59.19h1.929v1.85h-1.93zm4.499 0h1.928v1.85H99.35zM92.6 57.075h1.923v1.793H92.6zm4.5 0h1.928v1.793h-1.929zm4.355-26.757v2.218h-2.227v-2.218h-2.22v2.218h-2.181v-2.218H92.6v2.218h2.227v2.217h2.18v2.218h2.221v-2.218h2.227v-2.217h2.22v-2.218zm-4.407 4.435v-2.217h2.18v2.217z" fill="#fbe340"/><path d="M101.455 34.753h2.22v2.218h-2.22zm0 4.435h2.22v2.218h-2.22zm0 8.876h2.22v2.217h-2.22zm.143 4.781h1.929v1.786h-1.929zm0 4.23h1.929v1.793h-1.929z" fill="#fbe340"/><path d="M110.602 52.567v-.04H92.274v8.819h18.328v-8.78zM92.6 54.954h1.923v1.792H92.6zm4.5 1.792v-1.792h1.922v1.792zm4.177 0H99.35v-1.792h1.928v1.792zm-4.504 0H94.85v-1.792h1.923zm-1.923.33h1.923v1.786H94.85v-1.787zm2.25 0h1.922v1.786h-1.929l.006-1.787zm2.249 0h1.928v1.786H99.35v-1.787zm2.249 0h1.929v1.786h-1.929v-1.787zm1.929-.33h-1.929v-1.792h1.929zm.32-1.792h1.93v1.792h-1.93zm-2.249-.323v-1.786h1.929v1.786zm-4.499 0v-1.786h1.923v1.786H97.1zM92.6 57.075h1.923v1.787H92.6zm11.247 0h1.93v1.787h-1.93zm2.25 0h1.929v1.787h-1.93v-1.787zm0-.329v-1.792h1.929v1.792h-1.93zm0-2.115v-1.786h1.929v1.786h-1.93zm-.32 0h-1.93v-1.786h1.93zm-4.5 0H99.35v-1.786h1.928v1.786zm-4.504 0H94.85v-1.786h1.923zm-2.25 0H92.6v-1.786h1.923zM92.6 59.168h1.923v1.849H92.6zm2.25 0h1.923v1.849H94.85zm2.25 0h1.922v1.849h-1.929l.006-1.849zm2.249 0h1.928v1.849H99.35v-1.849zm2.249 0h1.929v1.849h-1.929zm2.25 0h1.928v1.849h-1.929v-1.849zm2.249 0h1.929v1.849h-1.93v-1.849zm2.25 0h1.928v1.849h-1.929v-1.849zm0-.329v-1.786h1.928v1.786h-1.929zm0-2.115v-1.77h1.928v1.792l-1.929-.022zm0-2.116v-1.763h1.928v1.786l-1.929-.023z" fill="#dc3b21"/><path d="M52.585 40.538h-.99v-1.792h1.911v1.469l.338-.148v-1.321h1.912v.386l.32-.188v-.181h.31c.171-.102.343-.216.515-.323h-.807v-1.753h1.928v.976l.321-.25v-.726h.887c.149-.124.298-.25.44-.38h-1.344v-1.792h1.929v1.214l.32-.33v-.884h.836c.097-.108.195-.215.286-.329h-1.145V32.4h1.93v.76c.108-.148.217-.295.32-.448V32.4h.217l.218-.33h-.435v-1.79h1.47c.058-.108.121-.216.173-.323h-1.643V28.22h1.929v1.134c.114-.243.223-.487.326-.737v-.38h.195c.045-.125.103-.25.148-.38h-.297v-1.809h.858l.086-.329h-.967v-1.786h1.316l.052-.33H65.08v-1.791h1.534v-.324H65.08v-.606h-.326v.618h-1.93v-.567h-.32v.567h-1.929v-.312l-.32.056v.256H59.11c-.395.096-.778.204-1.145.323h.057v1.792h-1.928v-1.117l-.321.147v.959h-1.917l-.573.329h.212v1.786h-1.9v-.624l-.327.25v.374h-.458l-.383.329h.841v1.792H49.34v-.771l-.32.34v.431h-.366l-.338.38h.733v1.736H47.09v-.182c-.115.17-.229.335-.338.505v1.792h-1.047l-.172.329h1.236v1.786H44.84v-.227c-.114.29-.217.568-.32.874v1.463h-.447c-.034.125-.062.255-.091.38h.572v1.735h-.921c0 .108 0 .216-.04.324h.927v1.792h-1.093v.329h1.104v1.003h.32v-.992h1.93v.953h.32v-.953h1.93v.675l.32-.068v-.607h1.929v.136l.326-.09v-.046h.143l.836-.284.103-.04zm.378-2.115h-1.368v-1.736h1.911v1.736zm.881-8.144h1.912v1.792h-1.912zm0-.323V28.22h1.912v1.736zm2.25-1.736h1.928v1.736h-1.928zm-2.588 5.966h-1.911V32.4h1.911zm0 .33v1.78h-1.911v-1.78zm.338 1.78v-1.78h1.912v1.78zm1.317-2.121h-1.317V32.4h1.912v1.786zm.933-.976v-.8h1.928v1.787h-1.928V33.2zm1.368-1.134h-1.368V30.28h1.928v1.792l-.56-.006zm.881-.567v-1.22h1.929v1.793h-1.946zm0-1.548v-1.73h1.929v1.736zm2.25-2.116v-1.786h1.928v1.792l-1.929-.006zm0-2.12v-1.781h1.928v1.786l-1.929-.006zm-.321 0h-1.946v-1.781h1.929l.017 1.78zm0 .328v1.792h-1.946v-1.786zm-2.25 1.792h-1.928v-1.786h1.928zm-2.249 0h-1.929v-1.786h1.912zm-2.25.38v1.736h-1.928v-1.73l1.929-.006zm0 2.06v1.791h-1.928V30.28l1.929-.006zm-2.237 1.791h-1.947V30.28h1.93l.017 1.786zm0 .33v1.786h-1.947V32.4l1.947-.006zm0 2.115v1.786h-1.947v-1.78zm-2.267 1.786H47.09v-1.78h1.929zm0 .38v1.735H47.09v-1.724zm.32 0h1.93v1.735h-1.93zm6.417 1.735h-1.912v-1.724h1.912zm2.25-2.115h-1.912v-1.78h1.928l-.017 1.78zm2.249-2.121h-1.93V32.4h1.93zm2.25-2.115h-1.93v-1.781h1.93v1.78zm0-2.116h-1.93V28.22h1.93v1.724zm2.249-2.115h-1.93v-1.781h1.93v1.78zm0-2.121h-1.93v-1.775h1.93zm0-3.908v1.792h-1.93v-1.78zm-2.25 0v1.792h-1.929v-1.78l1.93-.012zm-4.178 0h1.929v1.792h-1.93V21.8zm-.32 2.121v1.787h-1.912v-1.775l1.911-.012zm-2.25 0v1.787h-1.912v-1.775zm-4.161 2.116h1.911v1.792h-1.911zm-2.256 2.183h1.93v1.736h-1.93V28.22zm-2.249 2.06h1.929v1.792H47.09zm0 2.12h1.929v1.787H47.09zm-2.25 2.116h1.93v1.781h-1.93v-1.78zm0 2.172h1.93v1.736h-1.93zm0 3.851v-1.792h1.93v1.792zm2.25 0v-1.792h1.929v1.792zm2.25 0v-1.792h1.928v1.792z" fill="#60c6f2"/><path d="M.029 41.831v-1.134c1.32 0 2.637.127 3.932.38l.47.096V28.731A20.596 20.596 0 0 0 1.825 33v6.403H1.03v-4.367A20.6 20.6 0 0 0 0 41.468c0 .34 0 .68.029 1.015zm11.991-7.804a11.604 11.604 0 0 1 2.599-2.268v-10.05a20.58 20.58 0 0 0-2.599 1.01zm-5.5 7.708l.475.164c.274.097.538.199.8.306l.396.16c.389.164.778.34 1.145.532a11.762 11.762 0 0 1-.086-1.429 11.432 11.432 0 0 1 1.957-6.408V23.11a21.262 21.262 0 0 0-2.598 1.605v16.169h-.785V25.316a20.432 20.432 0 0 0-2.598 2.473v13.554h.046c.143.034.292.085.435.125.274.097.543.176.812.267zm11.487-11.451v-9.3c-.877.117-1.745.293-2.598.527v9.777a11.678 11.678 0 0 1 2.598-1.004zm.796-.17c4.818-.884 9.68 1.318 12.157 5.507l7.962-4.639c-3.517-5.953-9.794-9.78-16.742-10.208v6.448h-.78v-6.465h-.492c-.71 0-1.414.034-2.106.102v9.255z" fill="#3680c2"/><path d="M1.826 39.404V33a19.032 19.032 0 0 0-.796 2.036v4.367h.796zm2.604 1.752v1.134h.796v-14.5c-.275.312-.573.624-.796.953v12.414zm4.19-.272V24.715a17.1 17.1 0 0 0-.796.601v15.568zm2.599-5.824v3.017h.801v-4.05c-.285.333-.55.682-.796 1.044z" fill="#fff"/><path d="M11.219 35.06c.247-.359.515-.703.801-1.033V22.72c-.269.125-.532.255-.796.391v11.95h-.005zm3.394-3.301v2.972h.796V21.483c-.27.068-.533.147-.796.227zm3.394-1.475v2.082h.796v-2.269a9.442 9.442 0 0 0-.796.17z" fill="#fff"/><path d="M18.007 30.284c.263-.068.527-.124.796-.17v-9.26c-.27 0-.533.062-.796.101v9.33zm4.19-3.062v-6.431c-.263 0-.527 0-.796-.034v6.465z" fill="#fff"/></g></g></svg>